<?xml version="1.0" encoding="utf-8"?>
<!-- Generator: Adobe Illustrator 25.2.2, SVG Export Plug-In . SVG Version: 6.00 Build 0)  -->
<svg version="1.1" id="Layer_1" xmlns="http://www.w3.org/2000/svg" xmlns:xlink="http://www.w3.org/1999/xlink" x="0px" y="0px"
	 viewBox="0 0 278 56" style="enable-background:new 0 0 278 56;" xml:space="preserve">
<style type="text/css">
	.st0{fill:#0054FF;}
	.st1{fill:#FFFFFF;}
</style>
<g>
	<path class="st0" d="M13.1,12c3.4-3.3,7.9-5.4,12.6-5.9c0,1.7,0,3.5,0,5.2c-3.3,0.5-6.5,2-8.9,4.3c-2.3,2.1-4,5-4.8,8
		c-0.9,3.4-0.7,7,0.5,10.3c1.1,3,3.1,5.6,5.6,7.5c2.2,1.7,4.9,2.8,7.7,3.3c0,1.7,0,3.5,0,5.2c-5.1-0.6-9.9-3-13.4-6.7
		c-2.2-2.3-3.8-5-4.9-8c-1.3-3.6-1.5-7.6-0.8-11.4C7.4,19.4,9.7,15.2,13.1,12z"/>
	<path class="st0" d="M31.2,6.2c3.8,0.5,7.5,2,10.5,4.4c3.7,2.8,6.4,6.8,7.7,11.2c1.2,4.1,1.2,8.6,0,12.7c-0.9,3.1-2.5,5.9-4.7,8.3
		c-3.5,3.9-8.3,6.5-13.5,7.2c0-1.7,0-3.5,0-5.2c3.3-0.6,6.5-2.2,8.9-4.6c2.4-2.3,4-5.3,4.7-8.5c0.6-2.9,0.4-5.9-0.5-8.7
		c-0.9-2.9-2.7-5.5-4.9-7.5c-2.3-2-5.2-3.4-8.2-3.9C31.2,9.7,31.2,7.9,31.2,6.2z"/>
	<g>
		<path class="st0" d="M22.8,18.9c1.9-1.4,4.4-2.1,6.8-1.8c2.3,0.2,4.6,1.3,6.2,3c1.4,1.4,2.3,3.2,2.6,5.1c0.6,0,1.2-0.1,1.8,0.2
			c0.7,0.3,1.2,0.9,1.3,1.6c0.1,0.5,0,1.1-0.2,1.5c-0.3,0.7-1,1.1-1.8,1.1c-0.4,0-0.8,0-1.3,0c-0.7,2.8-2.8,5.2-5.4,6.4
			c-2.8,1.3-6.2,1.2-8.9-0.3c-0.1,0.9,0.2,1.9-0.3,2.8c-0.5,1-1.8,1.6-2.9,1.3c-1.1-0.3-1.9-1.3-1.9-2.4c0-2.6,0-5.2,0-7.8
			c-0.6,0-1.2,0.1-1.7-0.2c-0.8-0.3-1.2-1.2-1.2-2c0-0.8,0.5-1.7,1.2-2c0.6-0.3,1.3-0.2,1.9-0.2C19.3,22.6,20.7,20.4,22.8,18.9z
			 M27.7,22.2c-1,0.2-1.9,0.7-2.6,1.4c-0.9,0.9-1.4,2.2-1.3,3.5c0,1.5,0.8,2.9,2,3.7c0.9,0.6,2,1,3.1,0.9c1.4-0.1,2.8-0.8,3.6-2
			c0.7-1,1-2.2,0.9-3.3c-0.2-1.4-1-2.8-2.2-3.5C30.1,22.3,28.9,22,27.7,22.2z"/>
	</g>
</g>
<g>
	<path class="st1" d="M62.4,18c0-0.2,0.1-0.4,0.2-0.5c0.1-0.1,0.3-0.2,0.5-0.2h9.5c0.7,0,1.3,0.1,1.9,0.3c0.6,0.2,1.2,0.4,1.7,0.8
		c0.5,0.3,1,0.7,1.4,1.2c0.4,0.5,0.8,1,1,1.5c0.3,0.5,0.5,1.1,0.6,1.7c0.2,0.6,0.2,1.2,0.2,1.8c0,0.9-0.2,1.8-0.5,2.6
		c-0.3,0.9-0.8,1.6-1.4,2.3c-0.6,0.7-1.3,1.2-2.1,1.6c-0.8,0.4-1.8,0.6-2.8,0.6h-4.5v7.1c0,0.4-0.2,0.6-0.7,0.6H63
		c-0.2,0-0.4-0.1-0.5-0.2c-0.1-0.1-0.2-0.3-0.2-0.5V18z M73.6,24.5c0-0.3-0.1-0.6-0.2-0.9s-0.3-0.6-0.5-0.8
		c-0.2-0.2-0.4-0.4-0.7-0.6c-0.3-0.1-0.6-0.2-1-0.2h-3.2v5h3.2c0.4,0,0.7-0.1,1-0.2c0.3-0.1,0.5-0.3,0.7-0.6
		c0.2-0.2,0.3-0.5,0.4-0.8S73.6,24.9,73.6,24.5z"/>
	<path class="st1" d="M80.9,28.4c0-1.1,0.1-2.1,0.4-3c0.3-1,0.6-1.9,1.1-2.7c0.5-0.9,1.1-1.6,1.7-2.3c0.7-0.7,1.4-1.3,2.2-1.8
		c0.8-0.5,1.7-0.9,2.6-1.1c0.9-0.3,1.9-0.4,2.9-0.4c1,0,2,0.1,2.9,0.4c0.9,0.3,1.8,0.7,2.6,1.1c0.8,0.5,1.6,1.1,2.2,1.8
		c0.7,0.7,1.2,1.5,1.7,2.3c0.5,0.8,0.8,1.8,1.1,2.7c0.3,1,0.4,2,0.4,3c0,1.1-0.1,2.1-0.4,3c-0.3,1-0.6,1.9-1.1,2.7
		c-0.5,0.8-1,1.6-1.7,2.3c-0.7,0.7-1.4,1.3-2.2,1.8c-0.8,0.5-1.7,0.9-2.6,1.1c-0.9,0.3-1.9,0.4-2.9,0.4c-1,0-2-0.1-2.9-0.4
		c-0.9-0.3-1.8-0.7-2.6-1.1c-0.8-0.5-1.6-1.1-2.2-1.8c-0.7-0.7-1.2-1.5-1.7-2.3c-0.5-0.8-0.8-1.7-1.1-2.7
		C81,30.5,80.9,29.5,80.9,28.4z M86.4,28.4c0,0.8,0.1,1.6,0.4,2.3c0.3,0.7,0.6,1.3,1.1,1.9c0.5,0.5,1.1,0.9,1.7,1.3
		c0.7,0.3,1.4,0.5,2.2,0.5c0.8,0,1.5-0.2,2.2-0.5c0.7-0.3,1.2-0.7,1.7-1.3c0.5-0.5,0.9-1.2,1.1-1.9c0.3-0.7,0.4-1.5,0.4-2.3
		c0-0.8-0.1-1.6-0.4-2.3c-0.3-0.7-0.6-1.3-1.1-1.9c-0.5-0.5-1.1-1-1.7-1.3c-0.7-0.3-1.4-0.5-2.2-0.5c-0.8,0-1.5,0.2-2.2,0.5
		c-0.7,0.3-1.2,0.7-1.7,1.3c-0.5,0.5-0.9,1.2-1.1,1.9C86.6,26.8,86.4,27.6,86.4,28.4z"/>
	<path class="st1" d="M105.1,18c0-0.2,0.1-0.4,0.2-0.5c0.1-0.1,0.3-0.2,0.5-0.2h9.5c0.7,0,1.3,0.1,1.9,0.3c0.6,0.2,1.2,0.4,1.7,0.8
		c0.5,0.3,1,0.7,1.4,1.2c0.4,0.5,0.8,1,1,1.5c0.3,0.5,0.5,1.1,0.6,1.7c0.2,0.6,0.2,1.2,0.2,1.8c0,0.9-0.2,1.8-0.5,2.6
		c-0.3,0.9-0.8,1.6-1.4,2.3c-0.6,0.7-1.3,1.2-2.1,1.6c-0.8,0.4-1.8,0.6-2.8,0.6h-4.5v7.1c0,0.4-0.2,0.6-0.7,0.6h-4.4
		c-0.2,0-0.4-0.1-0.5-0.2c-0.1-0.1-0.2-0.3-0.2-0.5V18z M116.3,24.5c0-0.3-0.1-0.6-0.2-0.9c-0.1-0.3-0.3-0.6-0.5-0.8
		c-0.2-0.2-0.4-0.4-0.7-0.6s-0.6-0.2-1-0.2h-3.2v5h3.2c0.4,0,0.7-0.1,1-0.2c0.3-0.1,0.5-0.3,0.7-0.6c0.2-0.2,0.3-0.5,0.4-0.8
		C116.3,25.2,116.3,24.9,116.3,24.5z"/>
	<path class="st1" d="M124.6,18c0-0.2,0.1-0.3,0.2-0.5s0.3-0.2,0.5-0.2h4.4c0.2,0,0.3,0.1,0.5,0.2c0.2,0.1,0.2,0.3,0.2,0.5v8.1
		c1.1-1.4,2.1-2.8,3.2-4.1c1-1.4,2.1-2.7,3.2-4.1c0.1-0.2,0.3-0.3,0.4-0.4c0.2-0.1,0.3-0.2,0.5-0.2h5.7c0.2,0,0.4,0.1,0.4,0.2
		c0,0.1-0.1,0.2-0.2,0.4l-7,9.3l7.8,11.7c0.1,0.2,0.2,0.3,0.2,0.4c0,0.1-0.1,0.2-0.3,0.2h-5.6c-0.2,0-0.3,0-0.5-0.1
		c-0.2-0.1-0.3-0.2-0.4-0.4c-0.5-0.7-1-1.4-1.4-2.1c-0.4-0.7-0.9-1.3-1.3-2c-0.4-0.7-0.8-1.3-1.2-2c-0.4-0.7-0.9-1.4-1.4-2.1
		l-1.9,2.2v5.8c0,0.4-0.2,0.7-0.7,0.7h-4.4c-0.4,0-0.7-0.2-0.7-0.7V18z"/>
	<path class="st1" d="M143.2,28.4c0-1.1,0.1-2.1,0.4-3c0.3-1,0.7-1.9,1.2-2.7c0.5-0.9,1.1-1.6,1.8-2.3c0.7-0.7,1.5-1.3,2.3-1.8
		c0.8-0.5,1.8-0.9,2.7-1.1c1-0.3,2-0.4,3-0.4c1,0,2.1,0.1,3,0.4c1,0.3,1.9,0.7,2.7,1.1c0.8,0.5,1.6,1.1,2.3,1.8
		c0.7,0.7,1.3,1.5,1.8,2.3c0.5,0.8,0.9,1.8,1.2,2.7c0.3,1,0.4,2,0.4,3c0,1.1-0.1,2.1-0.4,3c-0.3,1-0.7,1.9-1.2,2.7
		c-0.5,0.8-1.1,1.6-1.8,2.3c-0.7,0.7-1.5,1.3-2.3,1.8c-0.8,0.5-1.8,0.9-2.7,1.1c-1,0.3-2,0.4-3,0.4c-1.1,0-2.1-0.1-3-0.4
		c-1-0.3-1.9-0.7-2.7-1.1c-0.8-0.5-1.6-1.1-2.3-1.8c-0.7-0.7-1.3-1.5-1.8-2.3c-0.5-0.8-0.9-1.7-1.2-2.7
		C143.3,30.5,143.2,29.5,143.2,28.4z M148.9,28.4c0,0.8,0.1,1.6,0.4,2.3c0.3,0.7,0.7,1.3,1.2,1.9c0.5,0.5,1.1,0.9,1.8,1.3
		c0.7,0.3,1.4,0.5,2.3,0.5c0.8,0,1.6-0.2,2.3-0.5c0.7-0.3,1.3-0.7,1.8-1.3c0.5-0.5,0.9-1.2,1.2-1.9c0.3-0.7,0.4-1.5,0.4-2.3
		c0-0.8-0.1-1.6-0.4-2.3c-0.3-0.7-0.7-1.3-1.2-1.9c-0.5-0.5-1.1-1-1.8-1.3c-0.7-0.3-1.4-0.5-2.3-0.5c-0.8,0-1.6,0.2-2.3,0.5
		c-0.7,0.3-1.3,0.7-1.8,1.3c-0.5,0.5-0.9,1.2-1.2,1.9C149.1,26.8,148.9,27.6,148.9,28.4z"/>
	<path class="st1" d="M168.1,18c0-0.2,0.1-0.3,0.2-0.5c0.1-0.1,0.3-0.2,0.5-0.2h4.9c0.1,0,0.3,0,0.4,0.1c0.2,0.1,0.3,0.2,0.4,0.4
		c1.3,2,2.5,4,3.8,6c1.2,2,2.5,4,3.8,6V17.9c0-0.2,0.1-0.3,0.2-0.4c0.1-0.1,0.3-0.2,0.4-0.2h4.2c0.2,0,0.4,0.1,0.5,0.2
		c0.1,0.1,0.2,0.3,0.2,0.5v20.9c0,0.2-0.1,0.3-0.2,0.4c-0.1,0.1-0.3,0.1-0.5,0.1h-4.8c-0.1,0-0.2,0-0.3-0.1
		c-0.1-0.1-0.2-0.2-0.3-0.4c-1.3-2.2-2.6-4.3-3.9-6.5c-1.3-2.1-2.6-4.3-3.9-6.5v12.8c0,0.2-0.1,0.4-0.2,0.5
		c-0.1,0.1-0.3,0.2-0.5,0.2h-4.2c-0.2,0-0.4-0.1-0.5-0.2c-0.1-0.1-0.2-0.3-0.2-0.5V18z"/>
	<path class="st0" d="M209.8,19.1c0.2,0.1,0.3,0.2,0.4,0.4c0.1,0.2,0.1,0.3,0,0.6l-2.5,3.5c-0.1,0.2-0.2,0.3-0.3,0.3
		c-0.1,0-0.3,0-0.4-0.1c-0.5-0.4-1-0.6-1.6-0.8c-0.6-0.2-1.2-0.3-1.8-0.3c-0.8,0-1.5,0.2-2.2,0.5c-0.7,0.3-1.3,0.7-1.7,1.3
		c-0.5,0.5-0.9,1.1-1.1,1.9c-0.3,0.7-0.4,1.5-0.4,2.3c0,0.8,0.1,1.6,0.4,2.3c0.3,0.7,0.7,1.3,1.1,1.8c0.5,0.5,1.1,0.9,1.7,1.2
		c0.7,0.3,1.4,0.5,2.2,0.5c0.6,0,1.3-0.1,1.9-0.3s1.1-0.5,1.6-0.8c0.2-0.1,0.3-0.2,0.4-0.1c0.1,0,0.2,0.1,0.4,0.3l2.5,3.6
		c0.1,0.2,0.1,0.4,0,0.5c-0.1,0.1-0.2,0.3-0.4,0.4c-0.9,0.6-1.9,1.1-3,1.4c-1.1,0.3-2.2,0.5-3.4,0.5c-1,0-2-0.1-3-0.4
		c-1-0.3-1.9-0.6-2.7-1.1s-1.6-1.1-2.3-1.8c-0.7-0.7-1.3-1.4-1.8-2.3s-0.9-1.7-1.1-2.7c-0.3-1-0.4-2-0.4-3c0-1,0.1-2,0.4-3
		c0.3-1,0.6-1.9,1.1-2.7c0.5-0.8,1.1-1.6,1.8-2.3c0.7-0.7,1.4-1.3,2.3-1.8s1.7-0.9,2.7-1.1c1-0.3,2-0.4,3-0.4c1.2,0,2.3,0.2,3.3,0.5
		C207.9,18,208.8,18.5,209.8,19.1z"/>
	<path class="st0" d="M210.9,28.4c0-1,0.1-2,0.4-3c0.3-1,0.6-1.9,1.1-2.7c0.5-0.8,1.1-1.6,1.8-2.3c0.7-0.7,1.4-1.3,2.3-1.8
		c0.8-0.5,1.7-0.9,2.7-1.1c1-0.3,2-0.4,3-0.4c1,0,2,0.1,3,0.4c1,0.3,1.9,0.6,2.7,1.1c0.8,0.5,1.6,1.1,2.3,1.8
		c0.7,0.7,1.3,1.4,1.8,2.3c0.5,0.8,0.9,1.7,1.1,2.7c0.3,1,0.4,2,0.4,3c0,1-0.1,2-0.4,3c-0.3,1-0.6,1.8-1.1,2.7
		c-0.5,0.8-1.1,1.6-1.8,2.3c-0.7,0.7-1.4,1.3-2.3,1.8c-0.8,0.5-1.7,0.9-2.7,1.1c-1,0.3-2,0.4-3,0.4c-1,0-2-0.1-3-0.4
		c-1-0.3-1.8-0.6-2.7-1.1c-0.8-0.5-1.6-1.1-2.3-1.8c-0.7-0.7-1.3-1.4-1.8-2.3c-0.5-0.8-0.9-1.7-1.1-2.7
		C211.1,30.5,210.9,29.5,210.9,28.4z M216.6,28.4c0,0.8,0.1,1.6,0.4,2.3c0.3,0.7,0.7,1.3,1.2,1.8c0.5,0.5,1.1,0.9,1.8,1.2
		c0.7,0.3,1.4,0.4,2.2,0.4c0.8,0,1.6-0.1,2.2-0.4c0.7-0.3,1.3-0.7,1.8-1.2c0.5-0.5,0.9-1.1,1.2-1.8c0.3-0.7,0.4-1.5,0.4-2.3
		c0-0.8-0.1-1.6-0.4-2.3s-0.7-1.3-1.2-1.9c-0.5-0.5-1.1-0.9-1.8-1.3c-0.7-0.3-1.4-0.5-2.2-0.5c-0.8,0-1.6,0.2-2.2,0.5
		c-0.7,0.3-1.3,0.7-1.8,1.3c-0.5,0.5-0.9,1.1-1.2,1.9C216.8,26.8,216.6,27.6,216.6,28.4z"/>
	<path class="st0" d="M236.5,18.1c0-0.2,0.1-0.3,0.2-0.5s0.3-0.2,0.5-0.2h4.3c0.1,0,0.3,0.1,0.5,0.2s0.2,0.3,0.2,0.5v20.5
		c0,0.4-0.2,0.6-0.7,0.6h-4.3c-0.4,0-0.6-0.2-0.6-0.6V18.1z"/>
	<path class="st0" d="M246.4,18.1c0-0.2,0.1-0.3,0.2-0.5s0.3-0.2,0.5-0.2h4.8c0.1,0,0.3,0,0.4,0.1c0.1,0.1,0.3,0.2,0.4,0.4
		c1.2,2,2.5,4,3.7,5.9c1.2,1.9,2.5,3.9,3.7,5.9V18c0-0.2,0.1-0.3,0.2-0.4s0.3-0.1,0.4-0.1h4.2c0.2,0,0.4,0.1,0.5,0.2
		c0.1,0.1,0.2,0.3,0.2,0.5v20.6c0,0.2-0.1,0.3-0.2,0.4c-0.1,0.1-0.3,0.1-0.5,0.1h-4.7c-0.1,0-0.2,0-0.3-0.1
		c-0.1-0.1-0.2-0.2-0.3-0.4c-1.3-2.2-2.6-4.3-3.9-6.4c-1.3-2.1-2.6-4.2-3.9-6.4v12.6c0,0.2-0.1,0.4-0.1,0.5
		c-0.1,0.1-0.3,0.2-0.5,0.2H247c-0.2,0-0.4-0.1-0.5-0.2s-0.2-0.3-0.2-0.4V18.1z"/>
</g>
</svg>
